
Plot:
A young boy named Milo gains a deeper appreciation for his mom after Martians come to Earth to take her away.
 
http://www.imdb.com/title/tt1305591/

General
Complete name : Mars.Needs.Moms.DVDRiP.XViD.AC3-TA.avi
Format : AVI
Format/Info : Audio Video Interleave
File size : 1.43 GiB
Duration : 1h 24mn
Overall bit rate : 2 416 Kbps
Writing library : VirtualDub build 32661/release
Source : Mars.Needs.Moms.DVDR-iGNiTiON

Video
ID : 0
Format : MPEG-4 Visual
Format profile : AdvancedSimple@L5
Format settings, BVOP : Yes
Format settings, QPel : No
Format settings, GMC : No warppoints
Format settings, Matrix : Default (H.263)
Muxing mode : Packed bitstream
Codec ID : XVID
Codec ID/Hint : XviD
Duration : 1h 24mn
Bit rate : 2 023 Kbps
Width : 720 pixels
Height : 304 pixels
Display aspect ratio : 2.35:1
Frame rate : 25.000 fps
Resolution : 24 bits
Colorimetry : 4:2:0
Scan type : Progressive
Bits/(Pixel*Frame) : 0.370
Stream size : 1.19 GiB (84%)
Writing library : XviD 1.1.2 (UTC 2006-11-01)

Audio
ID : 1
Format : AC-3
Format/Info : Audio Coding 3
Codec ID : 2000
Duration : 1h 24mn
Bit rate mode : Constant
Bit rate : 384 Kbps
Channel(s) : 6 channels
Channel positions : Front: L C R, Surround: L R, LFE
Sampling rate : 48.0 KHz
Stream size : 232 MiB (16%)
Alignment : Aligned on interleaves
Interleave, duration : 40 ms (1.00 video frame)
Interleave, preload duration : 512 ms

Greets:
all p2p groups
 
http://www.shotpix.com/images/62060410065871371118.png
 
http://www.shotpix.com/images/08486795214319082031.png
 
http://www.shotpix.com/images/20038107730449732893.png
 
http://www.shotpix.com/images/79474558923935971274.png
 
http://www.shotpix.com/images/73439337064215392531.png